PathFileType	4	(X/Y/Z)	/Users/itak/Documents/Research/Walk-IL/dataset/trc/00233_00009.trc
DataRate	CameraRate	NumFrames	NumMarkers	Units	OrigDataRate	OrigDataStartFrame	OrigNumFrames
100.000000	100.000000	4	53	mm	100.000000	642	857
Frame#	Time	RPSI			LPSI			L3			STRN			T10			C7			CLAV			RBAK			LBAK			LSHO			LUPA			LAEL			LAOL			LWTS			LWPS			LFRA			LIFD			LHPS			LHTS			RSHO			RUPA			RAEL			RAOL			RWTS			RWPS			RFRA			RIFD			RHTS			RHPS			RBHD			LFHD			RFHD			LBHD			LHIP			RHIP			RASI			LASI			LKNE			LTHI			LANK			LTIP			LTOE			LMT1			LMT5			LHEE			RKNE			RTHI			RANK			RTIP			RTOE			RMT1			RMT5			RHEE			
		X1	Y1	Z1	X2	Y2	Z2	X3	Y3	Z3	X4	Y4	Z4	X5	Y5	Z5	X6	Y6	Z6	X7	Y7	Z7	X8	Y8	Z8	X9	Y9	Z9	X10	Y10	Z10	X11	Y11	Z11	X12	Y12	Z12	X13	Y13	Z13	X14	Y14	Z14	X15	Y15	Z15	X16	Y16	Z16	X17	Y17	Z17	X18	Y18	Z18	X19	Y19	Z19	X20	Y20	Z20	X21	Y21	Z21	X22	Y22	Z22	X23	Y23	Z23	X24	Y24	Z24	X25	Y25	Z25	X26	Y26	Z26	X27	Y27	Z27	X28	Y28	Z28	X29	Y29	Z29	X30	Y30	Z30	X31	Y31	Z31	X32	Y32	Z32	X33	Y33	Z33	X34	Y34	Z34	X35	Y35	Z35	X36	Y36	Z36	X37	Y37	Z37	X38	Y38	Z38	X39	Y39	Z39	X40	Y40	Z40	X41	Y41	Z41	X42	Y42	Z42	X43	Y43	Z43	X44	Y44	Z44	X45	Y45	Z45	X46	Y46	Z46	X47	Y47	Z47	X48	Y48	Z48	X49	Y49	Z49	X50	Y50	Z50	X51	Y51	Z51	X52	Y52	Z52	X53	Y53	Z53	

643	6.42	-434.0842590332031	1035.402709960938	-261.5457458496094	-318.9464416503906	1036.060546875	-229.7594604492188	-359.555419921875	1121.816284179688	-245.3497314453125	-423.3265380859375	1299.5419921875	1.00352418422699	-366.6632690429688	1249.724487304688	-247.0014953613281	-386.5242004394531	1509.476318359375	-178.8721160888672	-424.4159545898438	1417.422241210938	-23.22040939331055	-431.2669372558594	1370.371459960938	-275.4035339355469	-273.1854248046875	1475.977783203125	-173.3972930908203	-240.59716796875	1475.691772460938	-73.08692169189453	-150.7764892578125	1362.884155273438	-87.49855041503906	-117.2281951904297	1155.095947265625	-69.69845581054688	-141.4700927734375	1133.250244140625	-151.2335815429688	-234.6370849609375	965.4761962890625	48.27138900756836	-157.288818359375	932.24267578125	53.05609512329102	-125.3983840942383	1056.300903320312	-24.16933441162109	-269.0462951660156	785.9027709960938	96.74810028076172	-183.9336090087891	855.171630859375	91.05198669433594	-244.2594757080078	879.2904663085938	112.7565994262695	-562.196533203125	1457.710571289062	-166.5924530029297	-618.9178466796875	1391.681274414062	-203.7174530029297	-656.2657470703125	1115.58642578125	-242.8187103271484	-560.4058227539062	1106.12109375	-254.7434234619141	-659.0679321289062	894.05078125	-110.653694152832	-707.3900756835938	885.3414916992188	-180.4462738037109	-677.338623046875	1047.032348632812	-224.2159271240234	-659.1646728515625	702.1175537109375	-112.2774353027344	-687.9041748046875	771.317138671875	-85.56803894042969	-721.7431640625	776.1795043945312	-149.3659362792969	-469.6724243164062	1671.491577148438	-116.5652694702148	-386.5768737792969	1672.203857421875	94.84098052978516	-485.8069152832031	1668.877807617188	88.94921875	-339.8855285644531	1672.121826171875	-63.21178817749023	-206.5343475341797	968.6770629882812	-99.69255828857422	-554.3118896484375	998.3336181640625	-195.6078338623047	-546.823974609375	1042.825805664062	-84.39979553222656	-275.8497924804688	1016.636169433594	-14.84012126922607	-323.1649475097656	489.94677734375	-84.27730560302734	-275.401611328125	629.7744140625	-75.03230285644531	-338.1149291992188	35.73485565185547	-234.921630859375	-324.6881408691406	266.5456848144531	-156.0907440185547	-483.6987609863281	43.9461784362793	-66.32115936279297	-490.8286743164062	36.19135284423828	-146.5168762207031	-380.4915466308594	39.7105827331543	-112.0307693481445	-358.2799682617188	40.85714721679688	-312.809814453125	-604.671142578125	547.5320434570312	8.809150695800781	-607.4788208007812	802.111083984375	-79.10309600830078	-654.9727172851562	47.79352951049805	47.38186645507812	-605.880615234375	432.535888671875	46.49010467529297	-600.1469116210938	113.3526077270508	239.5769653320312	-559.5037231445312	93.04697418212891	186.2733612060547	-671.3583984375	70.15311431884766	154.8214111328125	-602.7747802734375	32.97002029418945	-16.93497467041016	
644	6.43	-438.0260314941406	1034.47509765625	-255.5977630615234	-322.7843933105469	1035.35009765625	-225.0892639160156	-363.608642578125	1121.251708984375	-240.3126220703125	-424.1293334960938	1298.7978515625	6.916055679321289	-370.7601013183594	1249.0849609375	-241.8294372558594	-389.8226013183594	1508.828125	-173.3801116943359	-425.7085876464844	1416.6875	-17.27653312683105	-435.7101135253906	1369.72021484375	-269.3844909667969	-276.4080810546875	1475.401245117188	-169.3112335205078	-242.5245666503906	1475.052124023438	-69.47856140136719	-152.7826690673828	1362.32763671875	-85.37171936035156	-118.9324417114258	1154.459594726562	-68.77170562744141	-144.1116638183594	1133.138549804688	-150.1209411621094	-234.1051635742188	962.9652099609375	48.8545036315918	-156.4412841796875	930.2398071289062	52.46256256103516	-126.141487121582	1055.15966796875	-23.97174072265625	-266.5479736328125	782.5838623046875	95.08188629150391	-182.09912109375	852.5535888671875	89.82523345947266	-242.5205230712891	875.8564453125	112.1873321533203	-565.3285522460938	1456.875	-158.899658203125	-622.3663940429688	1390.764770507812	-195.3086242675781	-659.8724975585938	1114.688720703125	-234.0870056152344	-564.2476806640625	1105.32958984375	-247.0278778076172	-660.8759155273438	892.837646484375	-102.4374389648438	-710.13427734375	884.3056640625	-171.7376861572266	-680.659423828125	1046.121948242188	-215.4058685302734	-660.5714721679688	701.0127563476562	-104.9942016601562	-689.3220825195312	769.9271850585938	-77.47694396972656	-723.9798583984375	775.015380859375	-140.8462219238281	-472.2344665527344	1670.712646484375	-110.1500015258789	-387.0057678222656	1671.47900390625	100.4113311767578	-486.2926940917969	1668.067504882812	95.54121398925781	-341.910400390625	1671.4580078125	-58.12511444091797	-208.6446990966797	968.1653442382812	-96.23397064208984	-562.2982788085938	1000.374084472656	-182.0525360107422	-548.894287109375	1042.131713867188	-76.84654998779297	-276.9911193847656	1016.086181640625	-10.53838348388672	-323.7369995117188	489.28857421875	-81.74652099609375	-276.4429016113281	629.2777099609375	-72.10485076904297	-338.152587890625	35.7872200012207	-234.9295806884766	-324.9181518554688	266.28076171875	-154.8979797363281	-483.6002502441406	43.88187026977539	-66.19956207275391	-490.8013000488281	36.30630111694336	-146.4394226074219	-380.2532958984375	39.56541442871094	-111.939094543457	-358.3250427246094	41.11868667602539	-312.8189086914062	-605.3164672851562	546.8721923828125	17.37567520141602	-610.0438232421875	801.2055053710938	-71.03152465820312	-653.6212158203125	47.38602066040039	67.64335632324219	-605.675048828125	432.6812133789062	56.98994064331055	-593.7672119140625	116.6709976196289	257.0183715820312	-554.5388793945312	95.92920684814453	202.7819976806641	-667.033935546875	71.20181274414062	175.1689453125	-603.2330932617188	31.99852752685547	1.964367628097534	
645	6.44	-442.1985778808594	1033.426391601562	-249.3201446533203	-326.7165832519531	1034.585571289062	-220.2934875488281	-367.7419128417969	1120.627563476562	-235.1600952148438	-424.9751586914062	1298.030029296875	12.87460517883301	-374.8791809082031	1248.40234375	-236.5612487792969	-393.131591796875	1508.134887695312	-167.8233642578125	-427.0158386230469	1415.924438476562	-11.29021549224854	-440.1533813476562	1369.023559570312	-263.2710571289062	-279.6454772949219	1474.7705078125	-165.1497802734375	-244.4955596923828	1474.362426757812	-65.80307769775391	-154.8350219726562	1361.734008789062	-83.16920471191406	-120.6375350952148	1153.79345703125	-67.81153869628906	-146.7868804931641	1133.002807617188	-148.9801177978516	-233.4938507080078	960.261474609375	49.26544952392578	-155.4647674560547	928.1450805664062	51.7304801940918	-126.8523483276367	1053.981689453125	-23.83124923706055	-263.810302734375	779.050048828125	93.09447479248047	-180.1011657714844	849.802734375	88.34842681884766	-240.5926971435547	872.2154541015625	111.3783493041992	-568.4381103515625	1456.035034179688	-151.1551971435547	-625.7960205078125	1389.853515625	-186.8549041748047	-663.4295043945312	1113.763549804688	-225.2690124511719	-568.03857421875	1104.543334960938	-239.1846160888672	-662.704345703125	891.6640014648438	-94.09971618652344	-712.809814453125	883.2772827148438	-162.8844299316406	-683.9013061523438	1045.19287109375	-206.4660949707031	-662.0029296875	699.937744140625	-97.47608184814453	-690.7589111328125	768.5919189453125	-69.21348571777344	-726.1981201171875	773.8739013671875	-132.1607208251953	-474.7715759277344	1669.900268554688	-103.6690444946289	-387.4259643554688	1670.703247070312	106.0282287597656	-486.76025390625	1667.214233398438	102.1733474731445	-343.9237976074219	1670.755615234375	-52.97734069824219	-210.8064727783203	967.6270751953125	-92.69332122802734	-570.83203125	1002.58984375	-167.6979064941406	-550.9932250976562	1041.377197265625	-69.18185424804688	-278.0890197753906	1015.492980957031	-6.090519428253174	-324.4029541015625	488.5963134765625	-79.03768157958984	-277.5619812011719	628.7348022460938	-69.05935668945312	-338.20458984375	35.85478591918945	-234.9345550537109	-325.1847534179688	266.0042724609375	-153.5926818847656	-483.4958801269531	43.81814193725586	-66.06312561035156	-490.7616271972656	36.4198112487793	-146.3480224609375	-380.0192260742188	39.42796325683594	-111.8473892211914	-358.3706665039062	41.42658615112305	-312.8249206542969	-605.6607666015625	546.1005249023438	25.98861503601074	-612.6040649414062	800.0701904296875	-62.92723083496094	-651.9800415039062	47.10726165771484	86.55223083496094	-605.2084350585938	432.6907958984375	67.30776214599609	-587.461669921875	119.6296157836914	273.2305603027344	-549.5929565429688	98.42983245849609	218.1585083007812	-662.6273193359375	72.29075622558594	194.0884094238281	-603.2700805664062	31.10551452636719	19.66953277587891	
646	6.45	-446.6310729980469	1032.261474609375	-242.6777191162109	-330.7324523925781	1033.777709960938	-215.3594970703125	-371.9525451660156	1119.922729492188	-229.8820343017578	-425.8680114746094	1297.243408203125	18.88758850097656	-379.0331420898438	1247.676513671875	-231.1866149902344	-396.4526977539062	1507.394775390625	-162.20166015625	-428.3272399902344	1415.135864257812	-5.255774021148682	-444.6016540527344	1368.275634765625	-257.064697265625	-282.9069519042969	1474.081787109375	-160.9213104248047	-246.5054321289062	1473.623291015625	-62.0672721862793	-156.9330291748047	1361.099609375	-80.89359283447266	-122.3407516479492	1153.0966796875	-66.81306457519531	-149.4924163818359	1132.833862304688	-147.8082733154297	-232.7872467041016	957.3892211914062	49.52003479003906	-154.3728332519531	925.974365234375	50.86991500854492	-127.5241851806641	1052.774536132812	-23.74043464660645	-260.8592529296875	775.3369140625	90.79492950439453	-177.9513092041016	846.94091796875	86.63710784912109	-238.4611663818359	868.3919067382812	110.3548202514648	-571.5263061523438	1455.189208984375	-143.3550262451172	-629.2152099609375	1388.948364257812	-178.3527221679688	-666.9453125	1112.816528320312	-216.3819580078125	-571.7977905273438	1103.752563476562	-231.2384948730469	-664.552490234375	890.5318603515625	-85.63645172119141	-715.4230346679688	882.2567749023438	-153.8898620605469	-687.074462890625	1044.2421875	-197.4100189208984	-663.4622802734375	698.889892578125	-89.70709228515625	-692.2088623046875	767.3151245117188	-60.77019882202148	-728.3887329101562	772.7529296875	-123.3006362915039	-477.2849731445312	1669.054321289062	-97.12660980224609	-387.839599609375	1669.879028320312	111.6886596679688	-487.2103271484375	1666.317993164062	108.8407745361328	-345.9306640625	1670.014038085938	-47.76965713500977	-213.0110931396484	967.0529174804688	-89.08371734619141	-579.519775390625	1004.735168457031	-153.0449981689453	-553.1129760742188	1040.553833007812	-61.3979606628418	-279.1915283203125	1014.84033203125	-1.561830520629883	-325.1763610839844	487.8628234863281	-76.12509918212891	-278.7642211914062	628.1346435546875	-65.88357543945312	-338.2759094238281	35.94319915771484	-234.9389495849609	-325.50390625	265.7108764648438	-152.1554260253906	-483.3886108398438	43.75207901000977	-65.91320037841797	-490.7127075195312	36.52768707275391	-146.2443237304688	-379.7949523925781	39.30221939086914	-111.7568740844727	-358.4246826171875	41.7896842956543	-312.8279113769531	-605.7385864257812	545.268798828125	34.68551254272461	-615.0781860351562	798.7385864257812	-54.79722213745117	-650.029296875	46.86684417724609	103.9738845825195	-604.5015258789062	432.5482177734375	77.47411346435547	-581.3521118164062	122.1303787231445	288.17236328125	-544.7278442382812	100.4754257202148	232.3846588134766	-658.1911010742188	73.29961395263672	211.4629821777344	-602.8196411132812	30.24641418457031	36.06220245361328	
